<?xml version="1.0" encoding="utf-8"?>
<!-- Generator: Adobe Illustrator 24.3.0, SVG Export Plug-In . SVG Version: 6.00 Build 0)  -->
<svg version="1.1" id="Layer_1" xmlns="http://www.w3.org/2000/svg" xmlns:xlink="http://www.w3.org/1999/xlink" x="0px" y="0px"
	 viewBox="0 0 665.46 423.27" style="enable-background:new 0 0 665.46 423.27;" xml:space="preserve">
<style type="text/css">
	.st0{fill:#14683E;}
	.st1{fill:#FFFF00;}
	.st2{fill:#FF0000;}
	.st3{fill:#0074FF;}
</style>
<path class="st0" d="M506.29,335.54c-2.38-7.76-4.77-15.53-7.22-23.5c1.16-0.75,2.19-1.42,2.96-1.92c-1-2.89-1.9-5.49-2.43-7.01
	c-23.48-6.44-46.57-12.77-69.82-19.14c-0.63,3.43-1.16,6.26-1.77,9.6c0.77,0.45,1.96,1.13,3.29,1.9c-1.62,8.31-3.24,16.61-4.85,24.9
	c-8-1.58-16-3.16-24-4.74c1.43-7.18,2.72-14.38,4.37-21.51c0.37-1.62,1.97-2.95,3.95-4.02c0-1.63,0-3.25,0-5.98
	c-35.45,9.21-70.65,6.31-105.51-2.45c-1.08,2.53-1.71,4.03-2.44,5.74c1.64,0.34,3.04,0.63,4.85,1.01
	c-0.65,8.94-1.29,17.69-1.93,26.43c-8.16-0.7-16.31-1.4-24.47-2.1c0.68-8.47,1.36-16.93,2.06-25.69c1.1-0.39,2.25-0.81,3.68-1.32
	c-0.4-1.38-0.76-2.61-1.27-4.32c-40.92,1.8-78.58,16.17-116.44,29.13c-0.27,0.49-0.54,0.77-0.56,1.06
	c-0.06,0.83-0.02,1.66-0.02,2.82c1.24,0.07,2.47,0.14,4.09,0.23c2.61,8.46,5.26,17.01,7.97,25.79
	c22.86,16.8,27.17,64.06,12.87,82.83c-18.82-4.07-46.98-44.38-36.71-77.18c-2.44-7.99-4.92-16.09-7.44-24.35
	c1.24-0.84,2.27-1.53,3.27-2.22c-1.05-1.94-1.99-3.68-2.94-5.42c-0.09,0.39-0.19,0.78-0.28,1.17c-11.81-2.45-24.05-3.69-35.32-7.69
	c-11.18-3.97-21.37-10.7-31.69-16.07c-1.4,7.62-2.88,15.74-4.37,23.86c-8.07-1.65-16.14-3.29-24.21-4.94
	c1.75-8.3,3.5-16.6,5.3-25.16c1-0.2,2.09-0.42,2.37-0.48c1.61-3.96,3.05-7.5,5.02-12.33c-21.78-9.64-44.2-19.56-66.65-29.49
	c0.94-2.77,1.51-4.46,2.37-7c6.34,2.65,12.67,5.21,18.93,7.93c13.59,5.9,27.25,11.67,40.67,17.92c8.5,3.96,16.05,9.36,21.75,17.12
	c1.95,2.66,4.81,4.65,7.15,6.85c3.46,2.52,6.49,5.11,9.88,7.12c15.28,9.05,31.8,13.85,49.59,12.59c12.78-0.9,24.84-5.18,36.89-9.44
	c28.14-9.94,56.59-19,86.51-21.66c11.01-0.98,21.9-1.37,33.36,0.48c23.07,3.72,46.19,9.85,69.99,6.55
	c9.56-1.33,19.17-2.47,28.65-4.25c12.55-2.36,24.92-1.95,37.08,1.68c9.14,2.73,17.99,6.41,27.15,9.04
	c23.26,6.69,46.81,7.63,70.63,2.98c17.86-3.49,33.21-12.27,47.85-22.37c16.39-11.31,34.28-17.59,54.15-18.14
	c7.42-0.21,14.85-0.03,22.85-0.03c-0.29,3.45-0.48,5.7-0.62,7.42c-13.82,0.64-27.18,1.26-39.83,1.85c0,5.17,0,8.87,0,13.09
	c0.64,0.21,1.98,0.64,3.88,1.25c-0.34,3.44-0.47,7.05-1.1,10.58c-1.2,6.69-1.07,12.94,1.19,19.68c2.54,7.58,3.84,15.83,4.13,23.85
	c0.49,13.64-3.32,26.65-10.19,38.36c-3.67,6.26-8.19,12.42-15.22,16.29c-8.95-9.06-12.83-20.26-15.4-31.97
	c-3.41-15.52-1.2-30.61,4.35-45.34c0.23-0.62,0.18-1.47,0.6-1.87c8-7.62,5.61-17.83,6.84-27.13c0.15-1.15,0.23-2.31,0.38-3.8
	c1.11-0.41,2.27-0.82,3.54-1.29c-0.31-1.23-0.61-2.46-0.92-3.7c-0.65,0-1.24-0.18-1.58,0.03c-7.24,4.44-14.5,8.84-21.66,13.41
	c-18.36,11.71-38.31,18.58-60.08,20.15c-1.97,0.14-3.88,1.14-5.82,1.75c0.16,0.58,0.31,1.15,0.47,1.73c1.2,0.05,2.4,0.11,4,0.18
	c2.4,7.75,4.85,15.65,7.3,23.55c-0.64,0.71-1.15,1.81-1.94,2.07c-6.06,2.01-12.15,3.93-18.28,5.7
	C508.58,336.46,507.37,335.78,506.29,335.54z M622.8,306.44c0,8.74,0.65,17.29-0.18,25.68c-0.85,8.5-3.17,16.86-5.09,26.45
	C628.7,347.9,631.58,313.97,622.8,306.44z M174.26,344.43c5.54,9.91,10.71,19.17,16.22,29.02
	C189.49,360.93,184.83,347.56,174.26,344.43z M71.59,276.97c-1.56,2.35-3.28,3.86-3.39,5.48c-0.08,1.15,1.98,3.4,3.16,3.45
	c1.6,0.07,3.28-1.49,5.51-2.66C74.94,280.95,73.82,279.61,71.59,276.97z M419.82,282.21c-1.7,2.63-3.71,4.43-3.38,5.53
	c0.47,1.57,2.66,2.62,4.12,3.9c1.14-1.38,3.15-2.75,3.17-4.15C423.75,286.09,421.76,284.68,419.82,282.21z M622.06,266.72
	c-2.62-1.68-4.21-3.49-5.48-3.29c-1.45,0.22-2.62,2.24-3.92,3.48c1.36,1.3,2.58,3.38,4.13,3.66
	C617.94,270.78,619.52,268.68,622.06,266.72z M505.34,302.1c-0.28,0.43-0.56,0.87-0.84,1.3c1.54,1.16,3.07,3.2,4.64,3.23
	c1.39,0.02,2.81-2.19,4.22-3.42c-0.31-0.37-0.62-0.74-0.93-1.11C510.06,302.1,507.7,302.1,505.34,302.1z M163.78,312.06
	c-3.2,0.45-5.5,0.78-8.11,1.14C158.93,317.89,160.48,317.76,163.78,312.06z M290.54,281.82c2.25,1.92,3.55,3.02,5.28,4.5
	c1.78-1.14,3.03-1.94,4.28-2.74c-0.48-0.59-0.97-1.17-1.45-1.76C296.44,281.82,294.23,281.82,290.54,281.82z"/>
<path class="st1" d="M402.46,315.63c8,1.58,16,3.16,24,4.74c5.98,7.16,5.4,15.7,4.82,24.12c-0.96,13.99-4.82,27.21-13.11,38.61
	c-4.43,6.09-10.02,11.36-15.29,16.81c-2.85,2.94-5.87,2-8.04-1c-1.82-2.52-3.59-5.25-4.6-8.15c-8.15-23.45-6.78-46.35,4.92-68.33
	C396.63,319.64,399.98,317.87,402.46,315.63z M422.18,325.58c0,9.57,0,19.14,0,29.88C425.04,344.77,427.55,335.23,422.18,325.58z"/>
<path class="st2" d="M506.29,335.54c1.08,0.24,2.29,0.92,3.22,0.65c6.13-1.76,12.23-3.68,18.28-5.7c0.79-0.26,1.3-1.36,1.94-2.07
	c8.27,4.73,12.64,12.52,16.33,20.83c8.1,18.27,9.07,36.96,3.02,55.97c-0.97,3.06-2.76,5.87-4.01,8.47
	C527.05,412.4,495.99,371.24,506.29,335.54z M539.33,359.65c0.21-9.6-6-20.89-13.88-24.28
	C530.24,343.75,534.91,351.91,539.33,359.65z"/>
<path class="st2" d="M53.96,310.45c8.07,1.65,16.14,3.29,24.21,4.94c5.88,10.25,4.46,21.19,3.06,32.14
	c-2.18,17.06-10.82,30.82-22.33,43c-2.44,2.58-5.71,4.36-9.47,7.16c-2.2-3.32-4.38-5.81-5.67-8.69
	c-9.95-22.27-9.56-44.61,0.76-66.57C46.62,317.93,50.76,314.41,53.96,310.45z M74.04,345.66c2.71-8.21,3.87-16.38,0-24.47
	C74.04,329.34,74.04,337.5,74.04,345.66z"/>
<path class="st3" d="M281.28,312.74c8.16,0.7,16.32,1.4,24.47,2.1c7.47,9.49,7.22,20.73,6.81,31.83
	c-0.62,16.61-6.64,31.36-17.02,44.25c-2.36,2.94-5.6,5.17-8.43,7.73c-7.11-5.33-9.54-12.15-12.18-18.7
	c-8.55-21.14-7.76-42.06,2.16-62.57C277.96,315.59,279.86,314.28,281.28,312.74z M302.2,322.73c0.28,5.91,0.99,11.3,0.68,16.64
	c-0.33,5.59-1.58,11.13-2.51,16.68c-0.86,5.15-1.82,10.28-2.74,15.43c0.43,0.08,0.86,0.16,1.29,0.24c0.86-2.3,1.74-4.59,2.56-6.9
	c3.66-10.23,6.05-20.68,5.26-31.66C306.45,329.19,305.8,325.41,302.2,322.73z"/>
<path class="st0" d="M256.54,31.49c-11.14,2.08-22.7,1.56-34.15-0.83c-0.29-0.06-0.59-0.11-0.88-0.17
	c-4.86-0.39-9.72-0.66-14.59-0.91c-1.49,18.53-2.93,36.47-4.36,54.41c17.49,1.5,34.98,2.99,52.47,4.5
	c1.37-18.74,2.74-37.49,4.14-56.66c-0.14-0.03-0.26-0.05-0.4-0.08C258.02,31.66,257.28,31.58,256.54,31.49z"/>
<path class="st3" d="M202.55,83.99c17.49,1.5,34.98,2.99,52.47,4.5c16.02,20.35,15.48,44.44,14.6,68.24
	c-1.32,35.62-14.24,67.22-36.48,94.86c-5.07,6.3-12,11.09-18.08,16.58c-15.25-11.43-20.44-26.05-26.12-40.08
	c-18.33-45.32-16.63-90.18,4.64-134.15C195.44,90.08,199.51,87.29,202.55,83.99z M247.4,105.39c0.61,12.68,2.12,24.24,1.46,35.67
	c-0.7,11.98-3.39,23.86-5.38,35.76c-1.84,11.04-3.91,22.05-5.87,33.07c0.92,0.17,1.84,0.34,2.76,0.5c1.84-4.93,3.73-9.84,5.5-14.79
	c7.84-21.94,12.97-44.34,11.27-67.87C256.52,119.25,255.13,111.14,247.4,105.39z"/>
<path class="st0" d="M534.37,39.32c-0.97-0.04-1.92-0.12-2.87-0.21h-20.76c-4.97,0-9.79-0.52-14.47-1.51
	c-1.26,15.67-2.48,30.98-3.71,46.28c17.49,1.5,34.98,2.99,52.47,4.5c1.15-15.82,2.31-31.66,3.48-47.74
	C543.79,40.81,539.08,40.38,534.37,39.32z"/>
<path class="st2" d="M492.55,83.88c17.49,1.5,34.98,2.99,52.47,4.5c16.02,20.35,15.48,44.44,14.6,68.24
	c-1.32,35.62-14.24,67.22-36.48,94.86c-5.07,6.3-12,11.09-18.08,16.58c-15.25-11.43-20.44-26.05-26.12-40.08
	c-18.33-45.32-16.63-90.18,4.64-134.15C485.44,89.98,489.51,87.18,492.55,83.88z M537.4,105.28c0.61,12.68,2.12,24.24,1.46,35.67
	c-0.7,11.98-3.39,23.86-5.38,35.76c-1.84,11.04-3.91,22.05-5.87,33.07c0.92,0.17,1.84,0.34,2.76,0.5c1.84-4.93,3.73-9.84,5.5-14.79
	c7.84-21.94,12.97-44.34,11.27-67.87C546.52,119.14,545.13,111.03,537.4,105.28z"/>
</svg>
